<svg width="800" height="800" viewBox="0 0 800 800" fill="none" xmlns="http://www.w3.org/2000/svg">
<path fill-rule="evenodd" clip-rule="evenodd" d="M173.971 145.843C180.297 137.936 189.874 133.333 200 133.333H400H600C610.127 133.333 619.703 137.936 626.03 145.843L759.363 312.51C769.597 325.302 769.017 343.633 757.997 355.756L424.664 722.423C418.347 729.37 409.39 733.333 400 733.333C390.61 733.333 381.654 729.37 375.337 722.423L42.0022 355.756C30.9827 343.633 30.4043 325.302 40.6378 312.51L173.971 145.843ZM216.021 200L136.021 300H250.646L330.646 200H216.021ZM400 220.026L336.02 300H463.98L400 220.026ZM485.743 366.666H314.257L400 602.46L485.743 366.666ZM310.853 552.383L243.319 366.666H142.019L310.853 552.383ZM489.147 552.383L556.68 366.666H657.983L489.147 552.383ZM663.98 300H549.354L469.354 200H583.98L663.98 300Z" fill="black"/>
</svg>
