<svg width="520" height="140" viewBox="0 0 520 140" fill="none" xmlns="http://www.w3.org/2000/svg">
<rect width="520" height="140" rx="70" fill="white" fill-opacity="0.1"/>
<path d="M65.667 31.5C82.3275 31.5002 95.833 45.0065 95.833 61.667C95.8329 68.1283 93.7959 74.1206 90.3359 79.0293L110.986 99.6797C113.004 101.697 113.004 104.969 110.986 106.986C108.969 109.004 105.697 109.004 103.68 106.986L83.0293 86.3359C78.1206 89.7959 72.1283 91.8329 65.667 91.833C49.0065 91.833 35.5002 78.3275 35.5 61.667C35.5 45.0064 49.0064 31.5 65.667 31.5ZM65.667 41.833C54.7134 41.833 45.833 50.7134 45.833 61.667C45.8332 72.6204 54.7135 81.5 65.667 81.5C71.1453 81.4999 76.0959 79.2853 79.6904 75.6904C83.2853 72.0959 85.4999 67.1453 85.5 61.667C85.5 50.7135 76.6204 41.8332 65.667 41.833Z" fill="#C0F11C" stroke="#C0F11C" stroke-width="2"/>
<path d="M198.032 24.2686L202.035 29.2725C206.913 35.3702 208.748 41.446 208.579 47.3086C208.415 52.9779 206.383 57.9951 204.41 62.0469C203.746 63.4103 203.028 64.7771 202.379 66.0156L202.38 66.0166C202.078 66.5933 201.791 67.1408 201.529 67.6514C200.648 69.365 200.001 70.7332 199.597 71.9082H199.596C199.24 72.9424 199.17 73.5569 199.18 73.8926L199.189 74.0205L199.213 74.1592C199.224 74.2002 199.238 74.238 199.256 74.2764C199.297 74.3592 199.38 74.4899 199.57 74.6797C200.28 75.3903 200.716 75.5074 200.856 75.5342H200.858C201.007 75.563 201.31 75.5819 201.885 75.3457L202.147 75.2285C203.48 74.5858 205.208 73.0701 207.111 70.6846C209.039 68.2668 210.734 65.4848 211.971 63.2412C212.582 62.1335 213.064 61.1878 213.39 60.5264C213.553 60.1956 213.677 59.9378 213.757 59.7676L213.845 59.5771L213.86 59.5449L213.872 59.5205L216.304 54.1367L216.89 52.8408L217.912 53.8311L222.167 57.957C232.088 67.5758 235.201 81.5389 228.644 94.2178C222.966 105.197 211.346 112.667 198 112.667C179.159 112.667 163.667 97.7307 163.667 79.04C163.667 69.0934 169.191 62.0127 174.935 55.3047C175.688 54.4258 176.457 53.5405 177.235 52.6445C182.573 46.4983 188.407 39.7752 193.413 30.1221L196.363 24.4336L197.071 23.0684L198.032 24.2686ZM197.818 43.041C193.454 49.7415 188.88 55.0033 184.995 59.4707C184.228 60.3519 183.49 61.201 182.784 62.0254C176.981 68.8008 174 73.2703 174 79.04C174 91.7867 184.626 102.333 198 102.333C207.43 102.333 215.538 97.0655 219.465 89.4707L219.775 88.8486C222.608 82.922 222.351 76.6244 219.358 71.0967C218.186 73.0206 216.779 75.1358 215.19 77.1279C212.857 80.0537 209.674 83.3153 205.816 84.9023C203.781 85.7389 201.419 86.1658 198.904 85.6816C196.379 85.1954 194.155 83.8781 192.263 81.9863C190.311 80.0341 189.196 77.7022 188.917 75.1426C188.653 72.7352 189.166 70.4641 189.826 68.5459V68.5449C190.322 67.1022 190.976 65.6584 191.656 64.2803L192.339 62.9258C192.666 62.291 192.987 61.6766 193.304 61.0723C193.922 59.8931 194.522 58.7497 195.119 57.5234C196.898 53.8685 198.15 50.4515 198.25 47.0098C198.286 45.7503 198.168 44.4308 197.818 43.041Z" fill="#C0F11C" stroke="#C0F11C" stroke-width="2"/>
<path d="M338.417 51.7499L318.084 60.0833C316.688 60.6343 315.421 61.466 314.36 62.5266C313.3 63.5875 312.468 64.8546 311.917 66.25L303.584 86.5833C303.447 86.9316 303.453 87.3196 303.601 87.6633C303.75 88.0066 304.028 88.2775 304.375 88.4166C304.711 88.5412 305.081 88.5412 305.417 88.4166L325.75 80.0833C327.145 79.5321 328.413 78.7004 329.474 77.64C330.534 76.5791 331.366 75.3116 331.917 73.9166L340.25 53.5833C340.387 53.2351 340.381 52.8469 340.232 52.5034C340.084 52.1599 339.806 51.8891 339.459 51.7499C339.122 51.6255 338.753 51.6255 338.417 51.7499ZM322 74.1666C321.176 74.1666 320.371 73.9221 319.685 73.4646C319 73.0066 318.466 72.3558 318.151 71.5946C317.835 70.8333 317.753 69.9954 317.914 69.1871C318.074 68.3787 318.471 67.6362 319.054 67.0537C319.636 66.4708 320.379 66.0741 321.187 65.9133C321.996 65.7525 322.834 65.835 323.595 66.1504C324.356 66.4658 325.007 67 325.465 67.685C325.922 68.3704 326.167 69.1758 326.167 70C326.167 71.105 325.728 72.165 324.946 72.9462C324.165 73.7275 323.105 74.1666 322 74.1666Z" fill="#C0F11C"/>
<path d="M314.489 32.2402C321.957 30.7547 329.698 31.5167 336.733 34.4307C343.768 37.3446 349.781 42.2791 354.012 48.6104C358.242 54.9417 360.5 62.3856 360.5 70C360.5 80.2111 356.444 90.0032 349.224 97.2236C342.003 104.444 332.211 108.5 322 108.5C314.386 108.5 306.942 106.242 300.61 102.012C294.279 97.7814 289.345 91.7682 286.431 84.7334C283.517 77.6982 282.755 69.9574 284.24 62.4893C285.726 55.0209 289.392 48.1607 294.776 42.7764C300.161 37.3921 307.021 33.7257 314.489 32.2402ZM322 39.75C316.017 39.75 310.169 41.5239 305.194 44.8477C300.22 48.1716 296.342 52.8964 294.053 58.4238C291.763 63.9511 291.164 70.0333 292.331 75.9014C293.498 81.7691 296.38 87.1591 300.61 91.3896C304.841 95.6202 310.231 98.5017 316.099 99.6689C321.967 100.836 328.049 100.237 333.576 97.9473C339.104 95.6575 343.828 91.7799 347.151 86.8057C350.475 81.8309 352.25 75.983 352.25 70C352.25 61.9773 349.063 54.2834 343.39 48.6104C337.717 42.9374 330.023 39.75 322 39.75Z" fill="#C0F11C" stroke="#C0F11C" stroke-width="2"/>
<path fill-rule="evenodd" clip-rule="evenodd" d="M417.746 38.2304C418.537 37.242 419.734 36.6666 421 36.6666H446H471C472.266 36.6666 473.463 37.242 474.254 38.2304L490.92 59.0637C492.199 60.6628 492.127 62.9541 490.749 64.4695L449.083 110.303C448.293 111.171 447.174 111.667 446 111.667C444.826 111.667 443.707 111.171 442.917 110.303L401.25 64.4695C399.873 62.9541 399.8 60.6628 401.08 59.0637L417.746 38.2304ZM423.002 45L413.002 57.5H427.331L437.331 45H423.002ZM446 47.5032L438.002 57.5H453.997L446 47.5032ZM456.718 65.8333H435.282L446 95.3075L456.718 65.8333ZM434.856 89.0479L426.415 65.8333H413.752L434.856 89.0479ZM457.143 89.0479L465.585 65.8333H478.248L457.143 89.0479ZM478.997 57.5H464.669L454.669 45H468.997L478.997 57.5Z" fill="#C0F11C"/>
</svg>
