<svg width="101" height="40" viewBox="0 0 101 40" fill="none" xmlns="http://www.w3.org/2000/svg">
<rect width="101" height="40" rx="20" fill="white" fill-opacity="0.1"/>
<path d="M17.1655 30V12.12H20.4295V19.92H28.0375V12.12H31.3255V30H28.0375V22.8H20.4295V30H17.1655ZM40.8871 30.288C39.6071 30.288 38.4391 29.992 37.3831 29.4C36.3431 28.808 35.5111 28 34.8871 26.976C34.2791 25.952 33.9751 24.784 33.9751 23.472C33.9751 22.16 34.2791 20.992 34.8871 19.968C35.5111 18.944 36.3431 18.136 37.3831 17.544C38.4231 16.952 39.5911 16.656 40.8871 16.656C42.1671 16.656 43.3271 16.952 44.3671 17.544C45.4071 18.136 46.2311 18.944 46.8391 19.968C47.4631 20.976 47.7751 22.144 47.7751 23.472C47.7751 24.784 47.4631 25.952 46.8391 26.976C46.2151 28 45.3831 28.808 44.3431 29.4C43.3031 29.992 42.1511 30.288 40.8871 30.288ZM40.8871 27.408C41.5911 27.408 42.2071 27.24 42.7351 26.904C43.2791 26.568 43.7031 26.104 44.0071 25.512C44.3271 24.904 44.4871 24.224 44.4871 23.472C44.4871 22.704 44.3271 22.032 44.0071 21.456C43.7031 20.864 43.2791 20.4 42.7351 20.064C42.2071 19.712 41.5911 19.536 40.8871 19.536C40.1671 19.536 39.5351 19.712 38.9911 20.064C38.4471 20.4 38.0151 20.864 37.6951 21.456C37.3911 22.032 37.2391 22.704 37.2391 23.472C37.2391 24.224 37.3911 24.904 37.6951 25.512C38.0151 26.104 38.4471 26.568 38.9911 26.904C39.5351 27.24 40.1671 27.408 40.8871 27.408ZM50.1593 30V16.944H53.1113V19.968L52.7753 19.464C53.0153 18.52 53.4953 17.816 54.2153 17.352C54.9353 16.888 55.7833 16.656 56.7593 16.656C57.8313 16.656 58.7753 16.936 59.5913 17.496C60.4073 18.056 60.9353 18.792 61.1753 19.704L60.2873 19.776C60.6873 18.736 61.2873 17.96 62.0873 17.448C62.8873 16.92 63.8073 16.656 64.8473 16.656C65.7753 16.656 66.5993 16.864 67.3193 17.28C68.0553 17.696 68.6313 18.28 69.0473 19.032C69.4633 19.768 69.6713 20.624 69.6713 21.6V30H66.5273V22.344C66.5273 21.768 66.4233 21.272 66.2153 20.856C66.0073 20.44 65.7193 20.12 65.3513 19.896C64.9833 19.656 64.5353 19.536 64.0073 19.536C63.5113 19.536 63.0713 19.656 62.6873 19.896C62.3033 20.12 62.0073 20.44 61.7993 20.856C61.5913 21.272 61.4873 21.768 61.4873 22.344V30H58.3433V22.344C58.3433 21.768 58.2393 21.272 58.0313 20.856C57.8233 20.44 57.5273 20.12 57.1433 19.896C56.7753 19.656 56.3353 19.536 55.8233 19.536C55.3273 19.536 54.8873 19.656 54.5033 19.896C54.1193 20.12 53.8233 20.44 53.6153 20.856C53.4073 21.272 53.3033 21.768 53.3033 22.344V30H50.1593ZM78.5232 30.288C77.1792 30.288 76.0032 29.984 74.9952 29.376C73.9872 28.768 73.2032 27.944 72.6432 26.904C72.0832 25.864 71.8032 24.712 71.8032 23.448C71.8032 22.136 72.0832 20.976 72.6432 19.968C73.2192 18.944 73.9952 18.136 74.9712 17.544C75.9632 16.952 77.0672 16.656 78.2832 16.656C79.3072 16.656 80.2032 16.824 80.9712 17.16C81.7552 17.496 82.4192 17.96 82.9632 18.552C83.5072 19.144 83.9232 19.824 84.2112 20.592C84.4992 21.344 84.6432 22.16 84.6432 23.04C84.6432 23.264 84.6272 23.496 84.5952 23.736C84.5792 23.976 84.5392 24.184 84.4752 24.36H74.3952V21.96H82.6992L81.2112 23.088C81.3552 22.352 81.3152 21.696 81.0912 21.12C80.8832 20.544 80.5312 20.088 80.0352 19.752C79.5552 19.416 78.9712 19.248 78.2832 19.248C77.6272 19.248 77.0432 19.416 76.5312 19.752C76.0192 20.072 75.6272 20.552 75.3552 21.192C75.0992 21.816 75.0032 22.576 75.0672 23.472C75.0032 24.272 75.1072 24.984 75.3792 25.608C75.6672 26.216 76.0832 26.688 76.6272 27.024C77.1872 27.36 77.8272 27.528 78.5472 27.528C79.2672 27.528 79.8752 27.376 80.3712 27.072C80.8832 26.768 81.2832 26.36 81.5712 25.848L84.1152 27.096C83.8592 27.72 83.4592 28.272 82.9152 28.752C82.3712 29.232 81.7232 29.608 80.9712 29.88C80.2352 30.152 79.4192 30.288 78.5232 30.288Z" fill="#004AAD"/>
</svg>
