<svg width="800" height="800" viewBox="0 0 800 800" fill="none" xmlns="http://www.w3.org/2000/svg">
<path d="M531.333 253.999L368.667 320.666C357.503 325.075 347.367 331.728 338.88 340.213C330.395 348.7 323.742 358.836 319.333 370L252.666 532.666C251.572 535.453 251.623 538.556 252.81 541.306C253.996 544.053 256.221 546.22 259 547.333C261.688 548.33 264.645 548.33 267.333 547.333L430 480.666C441.16 476.256 451.3 469.603 459.787 461.12C468.27 452.633 474.923 442.493 479.333 431.333L546 268.666C547.093 265.881 547.043 262.775 545.857 260.027C544.67 257.279 542.443 255.112 539.667 253.999C536.977 253.004 534.023 253.004 531.333 253.999ZM400 433.333C393.407 433.333 386.963 431.376 381.48 427.716C376 424.053 371.727 418.846 369.203 412.756C366.68 406.666 366.02 399.963 367.307 393.496C368.593 387.03 371.767 381.09 376.43 376.43C381.09 371.766 387.03 368.593 393.497 367.306C399.963 366.02 406.667 366.68 412.757 369.203C418.847 371.726 424.053 376 427.717 381.48C431.377 386.963 433.333 393.406 433.333 400C433.333 408.84 429.82 417.32 423.57 423.57C417.32 429.82 408.84 433.333 400 433.333Z" fill="black"/>
<path d="M343.087 99.3398C401.581 88.2666 462.06 94.4945 517.103 117.293C573.015 140.453 620.806 179.674 654.429 229.995L655.993 232.36C688.611 282.166 706 340.426 706 400C706 480.524 674.263 557.771 617.717 615.027L616.376 616.376C558.988 673.761 481.158 706 400 706C340.426 706 282.166 688.611 232.36 655.993L229.995 654.429C179.674 620.806 140.453 573.015 117.293 517.103C94.1326 461.186 88.0727 399.66 99.8799 340.303L100.446 337.523C112.601 279.243 141.499 225.751 183.625 183.625C226.42 140.83 280.944 111.687 340.303 99.8799L343.087 99.3398ZM400 156C351.74 156 304.567 170.31 264.441 197.121C224.316 223.932 193.041 262.04 174.573 306.625C156.105 351.209 151.274 400.27 160.688 447.603C170.103 494.932 193.342 538.41 227.466 572.534C261.59 606.658 305.067 629.896 352.397 639.312C399.73 648.727 448.791 643.896 493.374 625.427L495.459 624.552C539.149 605.978 576.486 575.056 602.878 535.56C629.689 495.433 644 448.26 644 400C644 335.288 618.292 273.225 572.534 227.466C526.776 181.707 464.712 156 400 156Z" fill="black" stroke="black" stroke-width="12"/>
</svg>
