<svg width="100" height="100" viewBox="0 0 100 100" fill="none" xmlns="http://www.w3.org/2000/svg">
<path d="M66.4169 31.7499L46.0836 40.0833C44.6882 40.6343 43.4211 41.466 42.3602 42.5266C41.2996 43.5875 40.4679 44.8546 39.9169 46.25L31.5835 66.5833C31.4467 66.9316 31.4531 67.3196 31.6014 67.6633C31.7497 68.0066 32.0279 68.2775 32.3752 68.4166C32.7113 68.5412 33.0808 68.5412 33.4169 68.4166L53.7502 60.0833C55.1452 59.5321 56.4127 58.7004 57.4736 57.64C58.534 56.5791 59.3656 55.3116 59.9169 53.9166L68.2502 33.5833C68.3869 33.2351 68.3806 32.8469 68.2323 32.5034C68.084 32.1599 67.8057 31.8891 67.4586 31.7499C67.1223 31.6255 66.7531 31.6255 66.4169 31.7499ZM50.0002 54.1666C49.1761 54.1666 48.3706 53.9221 47.6852 53.4646C47.0002 53.0066 46.4661 52.3558 46.1507 51.5946C45.8352 50.8333 45.7527 49.9954 45.9136 49.1871C46.0744 48.3787 46.4711 47.6362 47.054 47.0537C47.6365 46.4708 48.379 46.0741 49.1873 45.9133C49.9956 45.7525 50.8336 45.835 51.5948 46.1504C52.3561 46.4658 53.0069 47 53.4648 47.685C53.9223 48.3704 54.1669 49.1758 54.1669 50C54.1669 51.105 53.7277 52.165 52.9465 52.9462C52.1652 53.7275 51.1052 54.1666 50.0002 54.1666Z" fill="#C0F11C"/>
<path d="M42.4893 12.2402C49.9574 10.7547 57.6982 11.5167 64.7334 14.4307C71.7682 17.3446 77.7814 22.2791 82.0117 28.6104C86.2425 34.9417 88.5 42.3856 88.5 50C88.5 60.2111 84.4436 70.0032 77.2236 77.2236C70.0032 84.4436 60.2111 88.5 50 88.5C42.3856 88.5 34.9417 86.2425 28.6104 82.0117C22.2791 77.7814 17.3446 71.7682 14.4307 64.7334C11.5167 57.6982 10.7547 49.9574 12.2402 42.4893C13.7257 35.0209 17.3921 28.1607 22.7764 22.7764C28.1607 17.3921 35.0209 13.7257 42.4893 12.2402ZM50 19.75C44.0171 19.75 38.1688 21.5239 33.1943 24.8477C28.2198 28.1716 24.3423 32.8964 22.0527 38.4238C19.7632 43.9511 19.1639 50.0333 20.3311 55.9014C21.4983 61.7691 24.3798 67.1591 28.6104 71.3896C32.8409 75.6202 38.2308 78.5017 44.0986 79.6689C49.9667 80.8361 56.049 80.2369 61.5762 77.9473C67.1038 75.6575 71.8275 71.7799 75.1514 66.8057C78.4752 61.8309 80.25 55.983 80.25 50C80.25 41.9773 77.0625 34.2834 71.3896 28.6104C65.7168 22.9374 58.0227 19.75 50 19.75Z" fill="#C0F11C" stroke="#C0F11C" stroke-width="2"/>
</svg>
