<svg width="100" height="100" viewBox="0 0 100 100" fill="none" xmlns="http://www.w3.org/2000/svg">
<path d="M41.667 11.5C58.3275 11.5002 71.833 25.0065 71.833 41.667C71.8329 48.1283 69.7959 54.1206 66.3359 59.0293L86.9863 79.6797C89.0039 81.6973 89.0039 84.9687 86.9863 86.9863C84.9687 89.0039 81.6973 89.0039 79.6797 86.9863L59.0293 66.3359C54.1206 69.7959 48.1283 71.8329 41.667 71.833C25.0065 71.833 11.5002 58.3275 11.5 41.667C11.5 25.0064 25.0064 11.5 41.667 11.5ZM41.667 21.833C30.7134 21.833 21.833 30.7134 21.833 41.667C21.8332 52.6204 30.7135 61.5 41.667 61.5C47.1453 61.4999 52.0959 59.2853 55.6904 55.6904C59.2853 52.0959 61.4999 47.1453 61.5 41.667C61.5 30.7135 52.6204 21.8332 41.667 21.833Z" fill="#C0F11C" stroke="#C0F11C" stroke-width="2"/>
</svg>
