<svg width="800" height="800" viewBox="0 0 800 800" fill="none" xmlns="http://www.w3.org/2000/svg">
<path d="M333.333 94C465.513 94 572.667 201.153 572.667 333.333C572.667 385.202 556.13 433.264 528.087 472.462L694.479 638.854C709.839 654.213 709.839 679.12 694.479 694.479C679.12 709.839 654.213 709.839 638.854 694.479L472.462 528.087C433.264 556.13 385.202 572.667 333.333 572.667C201.153 572.667 94 465.513 94 333.333C94.0002 201.153 201.153 94.0002 333.333 94ZM333.333 172.667C244.6 172.667 172.667 244.6 172.667 333.333C172.667 422.066 244.6 494 333.333 494C377.712 494 417.824 476.06 446.94 446.94C476.06 417.824 494 377.712 494 333.333C494 244.6 422.066 172.667 333.333 172.667Z" fill="black" stroke="black" stroke-width="12"/>
</svg>
