<svg width="800" height="800" viewBox="0 0 800 800" fill="none" xmlns="http://www.w3.org/2000/svg">
<path fill-rule="evenodd" clip-rule="evenodd" d="M394.007 39.1484L426.03 79.1778C463.953 126.584 477.93 173.359 476.633 218.235C475.373 261.869 459.717 300.768 444.083 332.873C438.83 343.66 433.154 354.497 427.953 364.424C425.543 369.027 423.233 373.434 421.117 377.55C414.047 391.3 408.643 402.68 405.21 412.664C401.76 422.687 401.12 429.027 401.56 433.034C401.89 436.057 402.907 439.1 406.903 443.097C413.513 449.707 418.39 451.564 421.347 452.13C424.367 452.714 428.383 452.524 434.13 450.164C446.983 444.877 462.677 431.114 479.143 410.467C494.96 390.634 508.77 367.947 518.78 349.794C523.733 340.807 527.65 333.129 530.303 327.745C531.627 325.056 532.633 322.95 533.293 321.551L534.017 320L534.173 319.653L534.197 319.608L553.723 276.39L587.773 309.402C664.867 384.147 688.724 492.077 638.05 590.064C593.983 675.277 503.743 733.334 400 733.334C253.5 733.334 133.333 617.24 133.333 472.324C133.333 395.977 175.562 341.347 221.557 287.638C227.558 280.632 233.69 273.571 239.919 266.398C282.627 217.224 329.883 162.813 370.407 84.6571L394.007 39.1484ZM570.897 393.08C560.493 411.07 546.963 432.35 531.263 452.034C512.837 475.14 488.427 499.917 459.487 511.82C444.333 518.05 427.03 521.117 408.747 517.597C390.397 514.064 373.987 504.46 359.763 490.237C345.39 475.864 337.32 458.88 335.287 440.274C333.36 422.647 337.087 405.744 342.17 390.967C347.27 376.154 354.574 361.177 361.83 347.067C364.423 342.02 366.983 337.134 369.52 332.296C374.46 322.873 379.307 313.622 384.143 303.688C398.53 274.145 409.15 245.571 409.993 216.31C410.447 200.616 408.107 183.817 400.91 165.76C363.697 225.699 323.738 271.639 289.921 310.519C283.792 317.565 277.865 324.379 272.193 331.002C225.827 385.144 200 422.924 200 472.324C200 578.89 288.767 666.667 400 666.667C478.477 666.667 546.06 622.82 578.833 559.44C607.557 503.897 603.497 443.757 570.897 393.08Z" fill="black"/>
</svg>
