<svg width="100" height="100" viewBox="0 0 100 100" fill="none" xmlns="http://www.w3.org/2000/svg">
<path d="M50.0317 4.26855L54.0347 9.27246C58.9127 15.3702 60.748 21.446 60.5786 27.3086C60.4148 32.9779 58.3827 37.9951 56.4097 42.0469C55.7457 43.4103 55.0282 44.7771 54.3794 46.0156L54.3804 46.0166C54.0785 46.5933 53.7913 47.1408 53.5288 47.6514C52.6477 49.365 52.0013 50.7332 51.5972 51.9082H51.5962C51.2402 52.9424 51.1704 53.5569 51.1802 53.8926L51.189 54.0205L51.2134 54.1592C51.2242 54.2002 51.2377 54.238 51.2563 54.2764C51.2966 54.3592 51.3801 54.4899 51.5698 54.6797C52.2804 55.3903 52.7165 55.5074 52.856 55.5342H52.8579C53.0073 55.563 53.3097 55.5819 53.8853 55.3457L54.147 55.2285C55.4803 54.5858 57.2082 53.0701 59.1108 50.6846C61.0389 48.2668 62.734 45.4848 63.9712 43.2412C64.5817 42.1335 65.0642 41.1878 65.3901 40.5264C65.5529 40.1956 65.6771 39.9378 65.7573 39.7676L65.8452 39.5771L65.8599 39.5449L65.8716 39.5205L68.3042 34.1367L68.8901 32.8408L69.9116 33.8311L74.1675 37.957C84.0885 47.5758 87.2009 61.5389 80.644 74.2178C74.9663 85.1966 63.3463 92.667 49.9995 92.667C31.159 92.6668 15.6665 77.7307 15.6665 59.04C15.6667 49.0934 21.1905 42.0127 26.9351 35.3047C27.6877 34.4258 28.4567 33.5405 29.2349 32.6445C34.5729 26.4983 40.4074 19.7752 45.4126 10.1221L48.3628 4.43359L49.0708 3.06836L50.0317 4.26855ZM49.8179 23.041C45.4537 29.7415 40.8803 35.0033 36.9946 39.4707C36.2281 40.3519 35.4897 41.201 34.7837 42.0254C28.9812 48.8008 25.9997 53.2703 25.9995 59.04C25.9995 71.7867 36.6258 82.3328 49.9995 82.333C59.4302 82.333 67.5381 77.0655 71.4653 69.4707L71.7749 68.8486C74.6085 62.922 74.3505 56.6244 71.3579 51.0967C70.1864 53.0206 68.7789 55.1358 67.1899 57.1279C64.8568 60.0537 61.6744 63.3153 57.8159 64.9023C55.7812 65.7389 53.4186 66.1658 50.9038 65.6816C48.379 65.1954 46.1549 63.8781 44.2632 61.9863C42.3111 60.0341 41.1962 57.7022 40.9165 55.1426C40.6534 52.7352 41.1658 50.4641 41.8257 48.5459V48.5449C42.3224 47.1022 42.9761 45.6584 43.6558 44.2803L44.3394 42.9258C44.6656 42.291 44.9873 41.6766 45.3042 41.0723C45.9224 39.8931 46.5216 38.7497 47.1187 37.5234C48.8985 33.8685 50.1503 30.4515 50.2495 27.0098C50.2859 25.7503 50.1681 24.4308 49.8179 23.041Z" fill="#C0F11C" stroke="#C0F11C" stroke-width="2"/>
</svg>
