<svg width="45" height="45" viewBox="0 0 45 45" fill="none" xmlns="http://www.w3.org/2000/svg">
<path fill-rule="evenodd" clip-rule="evenodd" d="M18.1102 0.43236C22.4746 -0.435809 26.9988 0.00970464 31.1102 1.71264C35.2215 3.41562 38.7357 6.29967 41.208 9.99979C43.6804 13.6998 44.9999 18.0499 45 22.4999C45 28.4674 42.6296 34.1903 38.4101 38.4101C34.1903 42.6296 28.4674 45 22.4998 45C18.0499 45 13.6999 43.6804 9.99978 41.208C6.29966 38.7357 3.41561 35.2215 1.71263 31.1103C0.00972753 26.9988 -0.435816 22.4746 0.432345 18.1102C1.30055 13.7457 3.443 9.73624 6.5896 6.58962C9.73627 3.44302 13.7457 1.30053 18.1102 0.43236ZM22.4998 27.4999C14.7586 27.4999 10.8328 32.0516 10.8328 35.8339C10.8327 36.2283 10.6957 36.5905 10.4666 36.8759C12.8714 38.8889 15.7486 40.2743 18.8416 40.8896C22.4787 41.6131 26.2488 41.2423 29.6747 39.8232C31.4447 39.09 33.0809 38.0924 34.5341 36.8759C34.3048 36.5905 34.167 36.2286 34.1669 35.8339C34.1669 32.0516 30.2411 27.4999 22.4998 27.4999ZM22.4998 3.74976C18.7913 3.74976 15.1662 4.84965 12.0828 6.90993C8.99939 8.97022 6.59661 11.8989 5.17749 15.325C3.75836 18.7511 3.38665 22.5209 4.1101 26.1581C4.67934 29.0197 5.90885 31.696 7.68336 33.9853C8.44148 30.152 11.532 26.8215 16.1258 25.2059C13.9108 23.3718 12.4998 20.6005 12.4998 17.4998C12.4999 11.9771 16.977 7.49979 22.4998 7.49978C28.0226 7.49978 32.4998 11.977 32.4999 17.4998C32.4999 20.6005 31.0889 23.3718 28.8739 25.2059C33.4689 26.822 36.5602 30.1537 37.3173 33.9882C37.5865 33.641 37.8445 33.2839 38.0898 32.9169C40.15 29.8334 41.2499 26.2084 41.2499 22.4999C41.2499 17.5272 39.274 12.7583 35.7577 9.24198C32.2415 5.72573 27.4726 3.74976 22.4998 3.74976ZM22.4998 10.8338C18.818 10.8338 15.8329 13.818 15.8328 17.4998C15.8328 21.1817 18.8179 24.1669 22.4998 24.1669C26.1817 24.1669 29.1669 21.1817 29.1669 17.4998C29.1668 13.818 26.1816 10.8338 22.4998 10.8338Z" fill="black"/>
</svg>
